<?xml version="1.0" ?><svg width="96px" height="96px" viewBox="0 0 96 96" id="Layer_1_1_" style="enable-background:new 0 0 96 96;" version="1.1" xml:space="preserve" xmlns="http://www.w3.org/2000/svg" xmlns:xlink="http://www.w3.org/1999/xlink"><path d="M42.195,55.832c1.763,1.176,3.784,1.763,5.805,1.763s4.042-0.587,5.805-1.763l-1.109-1.664  c-2.852,1.902-6.539,1.902-9.391,0L42.195,55.832z"/><path d="M51.947,50.645l-0.895-1.789c-1.912,0.955-4.193,0.955-6.105,0l-0.895,1.789c1.236,0.618,2.592,0.927,3.947,0.927  S50.711,51.263,51.947,50.645z"/><path d="M40.553,61.242c2.332,1.166,4.89,1.749,7.447,1.749s5.115-0.583,7.447-1.749l-0.895-1.789  c-4.104,2.053-9.002,2.053-13.105,0L40.553,61.242z"/><path d="M49,94v-9.832c3.367-0.323,6-3.157,6-6.608V77h-0.359c-3.519,0-6.391,2.739-6.618,6.2h-0.045  c-0.228-3.461-3.1-6.2-6.618-6.2H41v0.559c0,3.451,2.633,6.286,6,6.608V94H49z"/><path d="M76,79.414l-4.226,4.226c1.073,1.207,2.554,2.039,4.226,2.28V79.414z"/><polygon points="89.014,64.973 89.027,64.986 89.021,64.979 "/><path d="M70,79c0,1.048,0.238,2.039,0.653,2.933L76,76.586V72.08C72.614,72.568,70,75.481,70,79z"/><path d="M64.979,64.979c-6.4,6.4-6.611,16.623-0.671,23.299l2.778-2.778l-0.793-0.793l1.414-1.414L68.414,84h0.172l0.582-0.582  C68.428,82.112,68,80.606,68,79h-2c-0.266,0-0.52-0.105-0.707-0.293l-1-1l1.414-1.414L66.414,77h1.818  c0.16-0.702,0.404-1.371,0.718-2H68c-0.266,0-0.52-0.105-0.707-0.293l-1-1l1.414-1.414L68.414,73h1.897  c0.766-0.853,1.689-1.557,2.727-2.069C73.022,70.788,73,70.648,73,70.5c0-1.435,0.766-2.686,1.905-3.392  c-0.235-1.19-0.924-2.252-1.955-2.94l-0.504-0.336l1.109-1.664l0.504,0.336c1.421,0.948,2.393,2.389,2.767,4.014  C76.884,66.515,76.94,66.5,77,66.5s0.116,0.015,0.175,0.018c0.373-1.625,1.346-3.066,2.767-4.014l0.504-0.336l1.109,1.664  l-0.504,0.336c-1.032,0.688-1.721,1.75-1.955,2.94C80.234,67.814,81,69.065,81,70.5c0,0.148-0.022,0.288-0.038,0.431  c0.154,0.076,0.307,0.152,0.456,0.236l6.86-6.86C81.602,58.368,71.379,58.579,64.979,64.979z"/><path d="M78,85.92c3.386-0.488,6-3.401,6-6.92c0-2.079-0.916-3.943-2.36-5.226L78,77.414V85.92z"/><path d="M83.689,73h1.897l0.707-0.707l1.414,1.414l-1,1C86.52,74.895,86.266,75,86,75h-0.95c0.46,0.923,0.772,1.932,0.891,3h1.645  l0.707-0.707l1.414,1.414l-1,1C88.52,79.895,88.266,80,88,80h-2.059c-0.163,1.468-0.678,2.831-1.463,4h1.108l0.707-0.707  l1.414,1.414l-1,1C86.52,85.895,86.266,86,86,86h-3.355c-1.545,1.248-3.508,2-5.645,2s-4.099-0.752-5.645-2h-1.941l-3.692,3.692  c6.676,5.94,16.899,5.729,23.299-0.671s6.611-16.623,0.671-23.299l-6.638,6.638C83.277,72.563,83.488,72.776,83.689,73z"/><polygon points="64.973,89.014 64.979,89.021 64.986,89.027 "/><path d="M77,68.5c-1.008,0-1.836,0.753-1.972,1.725C75.664,70.082,76.322,70,77,70s1.336,0.082,1.972,0.225  C78.836,69.253,78.008,68.5,77,68.5z"/><path d="M78,74.586l1.933-1.933c-0.603-0.28-1.252-0.475-1.933-0.573V74.586z"/><path d="M21.219,73.367c-1.268-2.563-2.973-4.479-4.49-5.808c0.092,0.416,0.177,0.837,0.255,1.263  c0.491,2.76,0.612,5.578,0.367,8.413L21.219,73.367z"/><path d="M6.308,88.278l3.362-3.362c0.471-1.633,0.594-3.233,0.344-4.754c-0.459-2.771-2.075-4.879-3.041-6.138  c-0.783-1.022-1.46-1.905-0.7-2.711c0.168-0.181,0.491-0.38,0.998-0.387c1.299,0.027,4.283,1.851,6.488,4.423  c0.576,0.672,1.094,1.39,1.554,2.149c0.284-2.826,0.187-5.607-0.297-8.323c-0.244-1.346-0.57-2.647-0.967-3.866  c-0.131-0.402,0.006-0.844,0.341-1.102c0.334-0.26,0.794-0.278,1.152-0.049c1.797,1.158,4.958,3.645,7.155,7.73l7.581-7.581  c-6.676-5.94-16.899-5.729-23.299,0.671S0.368,81.602,6.308,88.278z"/><polygon points="31.014,64.973 31.027,64.986 31.021,64.979 "/><path d="M31.692,65.722l-8.09,8.09c0.114,0.282,0.232,0.553,0.339,0.85c0.192,0.554,0.352,1.109,0.494,1.664  c0.244-0.334,0.493-0.664,0.762-0.977c2.202-2.567,5.187-4.391,6.486-4.421c0.554,0.006,0.829,0.204,1.001,0.387  c0.756,0.804,0.082,1.684-0.699,2.702c-0.966,1.261-2.583,3.371-3.043,6.146c-0.335,2.026-0.021,4.194,0.935,6.446l-1.842,0.781  c-1.105-2.606-1.464-5.148-1.065-7.554c0.389-2.345,1.428-4.221,2.383-5.614c-0.842,0.614-1.784,1.434-2.638,2.429  c-2.301,2.683-3.601,6.274-3.76,10.387l-1.998-0.076c0.114-2.967,0.781-5.694,1.941-8.076c-0.151-1.171-0.428-2.358-0.835-3.535  l-5.156,5.156c-0.037,0.199-0.072,0.386-0.111,0.559c-0.415,2.065-1.026,4.131-1.864,6.296l-1.865-0.723  c0.454-1.173,0.831-2.312,1.15-3.442l-6.495,6.495c6.676,5.94,16.899,5.729,23.299-0.671S37.632,72.398,31.692,65.722z"/><path d="M14.437,80.149c-0.579-1.287-1.306-2.46-2.197-3.499c-0.855-0.998-1.8-1.819-2.644-2.434c0.957,1.394,2.001,3.271,2.39,5.62  c0.142,0.864,0.175,1.746,0.124,2.639L14.437,80.149z"/><polygon points="6.986,89.027 6.973,89.014 6.979,89.021 "/><path d="M48,2c-5.523,0-10,4.477-10,10v7h20v-7C58,6.477,53.523,2,48,2z M47,8c-1.654,0-3,1.346-3,3h-2c0-2.757,2.243-5,5-5V8z"/><path d="M32,21.293V24h-9v3c0,0.34-0.033,0.672-0.08,1H32v9.293h5.589C35.271,40.393,34,44.131,34,48.071V50h2v-1.929  c0-4.027,1.488-7.817,4.176-10.778H47V43h2v-5.707h6.824C58.512,40.254,60,44.044,60,48.071V50h2v-1.929  c0-3.941-1.271-7.678-3.589-10.778H64V28h9.08C73.033,27.672,73,27.34,73,27v-3h-9v-2.707H32z M53,33.293H43v-8h10V33.293z"/><path d="M23.52,15.9c0.64-0.45,0.64-1.35,0-1.8c-2.032-1.429-4.8-1.454-6.871-0.1h-1.299c-2.07-1.354-4.839-1.329-6.871,0.1  c-0.64,0.45-0.64,1.35,0,1.8c1.92,1.35,4.495,1.441,6.52,0.307V22h-4v5c0,2.419,1.718,4.436,4,4.899V42h-2v2h6v-2h-2V31.899  c2.282-0.463,4-2.48,4-4.899v-5h-4v-5.793C19.025,17.341,21.6,17.25,23.52,15.9z"/><path d="M87.52,14.1c-2.032-1.429-4.8-1.454-6.871-0.1h-1.299c-2.07-1.354-4.839-1.329-6.871,0.1c-0.64,0.45-0.64,1.35,0,1.8  c1.92,1.35,4.495,1.441,6.52,0.307V22h-4v5c0,2.419,1.718,4.436,4,4.899V42h-2v2h6v-2h-2V31.899c2.282-0.463,4-2.48,4-4.899v-5h-4  v-5.793c2.025,1.135,4.6,1.043,6.52-0.307C88.16,15.45,88.16,14.55,87.52,14.1z"/></svg>